<svg xmlns="http://www.w3.org/2000/svg" data-name="Layer 1" width="588.14077" height="694.96997" viewBox="0 0 588.14077 694.96997" xmlns:xlink="http://www.w3.org/1999/xlink"><path d="M562.42036,761.875l-1.87,8.18.45.49c-.1.25-.2.5-.32.75a57.644,57.644,0,0,1-3.4,6.52c-1.68,2.79-3.56,5.48-5.51,8.12-1.07,1.46-2.17,2.91-3.27,4.35a1.20684,1.20684,0,0,1-.1.14.87877.87877,0,0,1,.05-.15l-.36-.08-2.07-8.98-.63,1.42v.01l-1.02,2.35c.08.43.16.85.26,1.27-.01-.01-.01-.03-.02-.04-.01-.01-.01-.01-.01-.02-.13-.28-.27-.55-.4-.83l-1.56,3.58-3.16-.72c-1.66-.86-3.32-1.73-4.97-2.63-22.54-12.23-43.41-27.84-57.46-49.09a96.90444,96.90444,0,0,1-12.51-27.53c-5.33-19.42-4.41-40.32,5.29-57.67a.0098.0098,0,0,1,.01-.01q.36-.66.75-1.32c.19.5.37,1,.57,1.5v.01a136.268,136.268,0,0,0,9.41,19.65c.28.49.56.98.86,1.46a140.97617,140.97617,0,0,0,34.32,38.94,1.05944,1.05944,0,0,0,.12.1,1.43666,1.43666,0,0,0,.15.11q4.59,3.6,9.49,6.77v.01c2.55,1.66,5.17,3.23,7.83,4.72,5.67,3.16,11.84,6.2,17.14,9.99,5.15,3.67,9.49,8.04,11.8,13.89.18.47.35.94.5,1.41l-4.12,12.71Z" transform="translate(-305.92961 -102.51501)" fill="#f0f0f0"/><path d="M545.39039,782.635v.01l-1.02,2.35c-1.54-8.56.29-17.61-.98-26.28-.14-.97-.32-1.94-.55-2.9-1.30005-5.48-4.27-10.61-9.55005-13.06a21.8476,21.8476,0,0,0-4.81995-1.55c-3.28-.7-6.7-.85-10.01-1.24-.83-.1-1.65-.21-2.45-.36005a30.08933,30.08933,0,0,1-11.98-4.63,47.71988,47.71988,0,0,1-11.4-11.46,102.33333,102.33333,0,0,1-5.75-8.66c-.24-.38-.46-.77-.69-1.16a121.34464,121.34464,0,0,1-10.13-22.6,118.53179,118.53179,0,0,1-3.36-12.24,121.36825,121.36825,0,0,1-2.87-27.54.0098.0098,0,0,1,.01-.01c-.01-.42,0-.84.01-1.26.02-.86,1.35-.67,1.33.19-.01.42-.02.83-.02,1.25v.01a120.88811,120.88811,0,0,0,2.67,26.4c.1.44.2.88.29,1.32a119.7122,119.7122,0,0,0,13.47,34.19c.07.12.13995.24.22.36,1.45,2.47,3.01,4.87,4.65,7.22a51.89835,51.89835,0,0,0,10.98,11.92,28.66609,28.66609,0,0,0,12.16,5.27c.43995.08.88.16,1.33.23.35.06.71.11,1.07.15,3.37.42,6.83.58,10.18,1.22a26.991,26.991,0,0,1,4.47,1.25,18.15217,18.15217,0,0,1,10.32,10.68,31.58305,31.58305,0,0,1,1.81995,7.25c.11.81.19,1.62.26,2.44v.01c.1,1.31995.15,2.65.17,3.98.02,1.66-.01,3.32-.05005,4.97A85.3029,85.3029,0,0,0,545.39039,782.635Z" transform="translate(-305.92961 -102.51501)" fill="#fff"/><path d="M487.44934,714.57512A18.01813,18.01813,0,0,1,464.755,709.1593c-.50869-.69934.55415-1.52268,1.06352-.82241a16.6844,16.6844,0,0,0,21.12074,4.9947c.76923-.39533,1.27487.85047.51,1.24353Z" transform="translate(-305.92961 -102.51501)" fill="#fff"/><path d="M515.47009,738.57458a34.72846,34.72846,0,0,0-1.22951-25.27921c-.35484-.78953.88912-1.29863,1.24354-.51005a36.12283,36.12283,0,0,1,1.22593,26.30791c-.27855.82057-1.517.29746-1.24-.51865Z" transform="translate(-305.92961 -102.51501)" fill="#fff"/><path d="M473.44207,678.01888a10.1991,10.1991,0,0,0,7.02237-6.65924c.268-.8237,1.50625-.29968,1.24.51865a11.42892,11.42892,0,0,1-7.75229,7.38412.6946.6946,0,0,1-.87679-.36674.67543.67543,0,0,1,.36674-.87679Z" transform="translate(-305.92961 -102.51501)" fill="#fff"/><path d="M548.34041,790.505c.01995-.03.04-.05.06-.08-.04.12-.08.24-.11.37Z" transform="translate(-305.92961 -102.51501)" fill="#f0f0f0"/><path d="M578.07039,728.945l-1.4,4.9-8.6-1.61-2.85,8.79-.49,1.51-1.95,6.01-4.12,12.71,3.76.62-1.87,8.18.45.49.14.15.93,1.02,5.66,6.18-15.48,13.25-2.48-.57-1.27-.29a1.20684,1.20684,0,0,1-.1.14.87877.87877,0,0,1,.05-.15l-.36-.08-2.07-8.98-.63,1.42v.01l-1.02,2.35c.08.43.16.85.26,1.27-.01-.01-.01-.03-.02-.04-.01-.01-.01-.01-.01-.02-.13-.28-.27-.55-.4-.83-1.98-4.13-3.87-8.32-5.62-12.56a184.48557,184.48557,0,0,1-10.11-31.61c-.1-.47-.21-.94-.29-1.42v-.01a131.23411,131.23411,0,0,1-2.67-21.24v-.01a114.85052,114.85052,0,0,1,.12-11.73,96.392,96.392,0,0,1,6.57-29.43c.02-.05.04-.09.06-.14,7.13-17.94,19.68-33.5,36.74-41.79.71-.36,1.44-.7,2.17-1.02h.02l.01-.01c.46-.2.91-.39,1.37-.59-.15.52-.31,1.04-.45,1.57a133.75043,133.75043,0,0,0-4.32,21.35v.01c-.08.55-.15,1.12-.21,1.68v.01a141.58428,141.58428,0,0,0,4.01995,51.96c.01.05.03.09.04.13995A135.98826,135.98826,0,0,0,578.07039,728.945Z" transform="translate(-305.92961 -102.51501)" fill="#f0f0f0"/><path d="M562.07039,771.715c-.79,1.06-1.6,2.09-2.42,3.12-.79.99-1.58,1.98-2.37,2.98a57.41827,57.41827,0,0,0-5.51,8.12,28.47175,28.47175,0,0,0-2,4.64l-1.27-.29a1.20684,1.20684,0,0,1-.1.14.87877.87877,0,0,1,.05-.15c2.33-7.28,7.63-12.92,12.23-18.98.16-.2.31-.4.46-.6Z" transform="translate(-305.92961 -102.51501)" fill="#fff"/><path d="M572.9004,634.375c-.26.33-.53.67-.78,1.01q-2.925,3.795-5.53,7.83a117.99176,117.99176,0,0,0-8.22,14.85c-.19.4-.38.81-.56,1.22a119.26327,119.26327,0,0,0-9.84,35.44c-.02.12-.03.23-.04.35q-.49494,4.29-.64,8.61a51.7824,51.7824,0,0,0,1.59,16.12c.2.69.42,1.37.66,2.03a27.34479,27.34479,0,0,0,2.25,4.65,27.9227,27.9227,0,0,0,2.14,3.09c.47.6.96,1.19,1.48,1.76.3.33.61.66.92.99.26.25.51.51.77.76,2.7,2.62,5.68,5.05,8.12,7.94l-.49,1.51c-2.35-2.98-5.38-5.45-8.11-8.05a37.89748,37.89748,0,0,1-4.66-5.28c-.18-.26-.37-.52-.54-.79a26.749,26.749,0,0,1-2.38995-4.29c-.34-.75-.65-1.52-.93-2.32a47.89267,47.89267,0,0,1-2.2-16,103.41482,103.41482,0,0,1,.62-10.39c.04-.45.09-.89.15-1.34a121.6383,121.6383,0,0,1,5.52-24.14,122.65961,122.65961,0,0,1,13.76-28.18q2.475-3.765,5.25-7.35c.24-.33.49-.65.75-.98C572.48036,632.745,573.43037,633.695,572.9004,634.375Z" transform="translate(-305.92961 -102.51501)" fill="#fff"/><path d="M547.14641,695.54137A18.01811,18.01811,0,0,1,532.287,677.55361a.67262.67262,0,0,1,1.34431-.01634,16.68439,16.68439,0,0,0,13.85658,16.70413c.8522.14748.50587,1.44661-.34145,1.3Z" transform="translate(-305.92961 -102.51501)" fill="#fff"/><path d="M555.07008,731.574a34.72845,34.72845,0,0,0,14.23814-20.92427c.192-.844,1.49177-.50157,1.3.34145a36.12277,36.12277,0,0,1-14.86033,21.74348c-.71645.48747-1.39035-.67584-.67778-1.16066Z" transform="translate(-305.92961 -102.51501)" fill="#fff"/><path d="M557.97177,657.91992a10.19909,10.19909,0,0,0,9.6163-1.08908c.70992-.49631,1.38308.66759.67778,1.16066a11.429,11.429,0,0,1-10.63553,1.2284.69462.69462,0,0,1-.47926-.82071.67543.67543,0,0,1,.82071-.47927Z" transform="translate(-305.92961 -102.51501)" fill="#fff"/><path d="M700.52974,214.44254c-7.571-40.52007,4.34872-86.61852,37.47864-111.14533a189.92246,189.92246,0,0,0,39.59323,124.23811c10.63431,13.63029,23.88146,27.68319,23.47,44.96635-.25582,10.754-6.07175,20.77238-13.736,28.31989-7.66485,7.5477-17.10628,12.98925-26.43483,18.34614l-1.45212,2.25887C732.1028,290.58178,708.10071,254.96261,700.52974,214.44254Z" transform="translate(-305.92961 -102.51501)" fill="#f0f0f0"/><path d="M738.61205,103.91666a162.33255,162.33255,0,0,0-10.71652,99.30007c1.533,7.14727,3.7101,14.26418,7.40239,20.61408a40.09421,40.09421,0,0,0,15.14673,14.6917c5.78156,3.34071,12.08233,6.08837,16.95113,10.77632,5.132,4.94135,7.41737,11.68538,7.22683,18.7316-.23313,8.62125-3.55011,16.64458-7.06651,24.378-3.90429,8.58649-8.09566,17.44331-7.84245,27.09691.03068,1.16966-1.78605,1.14888-1.81668-.019-.44054-16.79561,11.70217-30.28435,14.40782-46.4004,1.26251-7.52.26641-15.46612-5.02054-21.29522-4.62321-5.09729-11.11819-7.93626-17.00138-11.26821-6.17744-3.4986-11.43648-7.82109-15.34548-13.8135-3.99869-6.12991-6.45863-13.1767-8.16761-20.25343a157.49128,157.49128,0,0,1-3.56967-49.09351A165.21111,165.21111,0,0,1,737.053,102.98332c.47608-1.0646,2.032-.12431,1.559.93334Z" transform="translate(-305.92961 -102.51501)" fill="#fff"/><path d="M725.02385,192.59264a24.355,24.355,0,0,1-25.40911-18.68088c-.26554-1.13836,1.49094-1.60448,1.75684-.4646a22.55223,22.55223,0,0,0,23.67129,17.3288c1.16575-.08762,1.14006,1.72956-.019,1.81668Z" transform="translate(-305.92961 -102.51501)" fill="#fff"/><path d="M747.29008,237.21472a46.9424,46.9424,0,0,0,11.76612-32.12319c-.02654-1.16974,1.79017-1.14931,1.81667.019a48.82722,48.82722,0,0,1-12.31165,33.40221c-.77848.87521-2.04538-.42758-1.27114-1.298Z" transform="translate(-305.92961 -102.51501)" fill="#fff"/><path d="M726.8115,139.70664a13.78612,13.78612,0,0,0,12.24672-4.598c.767-.88464,2.03314.41915,1.27114,1.298a15.44848,15.44848,0,0,1-13.53688,5.1166.9389.9389,0,0,1-.89883-.91784.913.913,0,0,1,.91785-.89883Z" transform="translate(-305.92961 -102.51501)" fill="#fff"/><path d="M873.49118,136.81342c-.46321.566-.92643,1.132-1.38569,1.71288a181.55558,181.55558,0,0,0-16.61657,24.31563c-.38711.65443-.76957,1.32347-1.13707,1.98766A191.40035,191.40035,0,0,0,832.01917,231.665a185.8738,185.8738,0,0,0-1.70413,28.19016c.20468,13.01814,1.4624,27.11683-2.528,39.08987a31.88566,31.88566,0,0,1-1.436,3.676L762.317,323.02287c-.1688-.02666-.33367-.03856-.50318-.065l-2.51944.93148c-.04157-.48562-.07425-.99019-.11582-1.47581-.02529-.2816-.03631-.56775-.0616-.84935-.01233-.18917-.024-.37866-.04594-.54866-.00434-.063-.008-.12613-.00768-.17455-.022-.17-.02428-.33024-.04157-.48562-.19045-2.81988-.36667-5.64438-.51289-8.47835-.00466-.01462-.00466-.01462.005-.03379-1.0991-21.58414-.40591-43.44967,3.584-64.51486.12025-.63373.23513-1.28186.38464-1.92492a177.36546,177.36546,0,0,1,7.8437-27.86114,156.7993,156.7993,0,0,1,6.3232-14.55078,130.38868,130.38868,0,0,1,23.66929-33.193c19.10321-19.44335,44.21209-32.56072,71.11666-32.97376C872.12356,136.81472,872.79825,136.80887,873.49118,136.81342Z" transform="translate(-305.92961 -102.51501)" fill="#f0f0f0"/><path d="M873.60616,137.672a162.33255,162.33255,0,0,0-68.342,72.83347c-3.07914,6.62965-5.62572,13.62288-6.50071,20.91593a40.09422,40.09422,0,0,0,3.24841,20.84988c2.6049,6.14827,5.98143,12.13562,7.04643,18.81,1.12256,7.03519-1.11305,13.79589-5.50749,19.30718-5.37673,6.74322-12.85575,11.15235-20.31946,15.20995-8.287,4.50517-16.966,9.05335-22.576,16.91366-.67972.95238-2.11776-.158-1.43906-1.10895,9.76037-13.67559,27.5768-17.13484,39.44008-28.37362,5.53563-5.24421,9.52439-12.18844,8.81257-20.02575-.62245-6.8534-4.09907-13.03058-6.79041-19.233-2.82594-6.51269-4.42255-13.13025-3.93582-20.26835.4979-7.30187,2.77643-14.4094,5.67258-21.08869a157.49128,157.49128,0,0,1,26.7075-41.34761,165.21084,165.21084,0,0,1,43.80052-35.078c1.02108-.5634,1.69729,1.12415.68287,1.68387Z" transform="translate(-305.92961 -102.51501)" fill="#fff"/><path d="M809.36768,200.29378a24.355,24.355,0,0,1-9.04057-30.21367c.47335-1.0688,2.15644-.38344,1.68246.68678a22.55224,22.55224,0,0,0,8.46706,28.08783c.98355.6319-.131,2.06735-1.109,1.43906Z" transform="translate(-305.92961 -102.51501)" fill="#fff"/><path d="M800.28045,249.32782a46.9424,46.9424,0,0,0,28.735-18.56455c.68307-.95,2.12131.16015,1.43906,1.10895a48.82714,48.82714,0,0,1-29.9406,19.25732c-1.14851.23012-1.37569-1.57285-.23342-1.80172Z" transform="translate(-305.92961 -102.51501)" fill="#fff"/><path d="M842.636,159.14356a13.78616,13.78616,0,0,0,12.54662,3.70216c1.145-.24456,1.371,1.55875.23342,1.80172a15.44851,15.44851,0,0,1-13.889-4.06482.93891.93891,0,0,1-.16505-1.274.913.913,0,0,1,1.274-.165Z" transform="translate(-305.92961 -102.51501)" fill="#fff"/><path d="M462.00556,166.03682c-3.53831-2.4976-7.40948-5.10206-11.73917-4.998-10.47929.252-16.12921,15.61415-26.59771,15.07391-6.676-.34454-11.10783-7.12648-17.324-9.58557-8.09278-3.20134-18.39145,3.05971-19.27433,11.71767l1.03931-.95123a250.9319,250.9319,0,0,0,96.13471,4.4412Q473.12509,173.88583,462.00556,166.03682Z" transform="translate(-305.92961 -102.51501)" fill="#f0f0f0"/><circle cx="175.68348" cy="45.63742" r="36.36258" fill="#ff6582"/><path d="M566.72889,141.20612c-4.50927-3.183-9.44275-6.50214-14.96056-6.36945-13.355.32114-20.55529,19.89888-33.89649,19.21039-8.50805-.43908-14.156-9.08208-22.0779-12.216-10.31354-4.07983-23.43831,3.89934-24.56347,14.93317L472.555,155.552a319.79088,319.79088,0,0,0,122.5154,5.65993Q580.89977,151.209,566.72889,141.20612Z" transform="translate(-305.92961 -102.51501)" fill="#f0f0f0"/><path d="M893.81216,506.23394l-38.589-206.6191a15.30459,15.30459,0,0,0-14.5341-12.38451q-.46807-.01041-.93615,0l-26.28762.943-2.82918.104-13.11954.47152-2.82917.09709-8.43894.30511L616.0826,295.26017c-.25656.01384-.52007.01384-.77663.0069l-38.13129-.79741-14.11113-.29123-.45074-.00694-10.41522-.2219-90.75513-1.88613-24.06172-.50618-11.86449-.24268-2.843-.06243-13.52868-.27739-2.83607-.06238-13.84073-.28433-2.83611-.06238-15.20675-.319-2.38538-.04855-13.56334-.28428-2.14265-.0416h-.312a15.263,15.263,0,0,0-14.99179,12.7451l-34.9,214.40622a15.18177,15.18177,0,0,0,14.98485,17.62679H521.54141a13.88889,13.88889,0,0,1,8.19626,2.70436l3.79994,2.8153a15.32026,15.32026,0,0,0,9.03527,2.9817H660.69047a15.09079,15.09079,0,0,0,10.74111-4.4518,13.7781,13.7781,0,0,1,9.01449-4.0149l199.23414-10.49843a15.18288,15.18288,0,0,0,14.13195-17.95267Z" transform="translate(-305.92961 -102.51501)" fill="#ccc"/><path d="M862.23372,500.61719l-21.51-213.10952c-.00694-.0901-.02082-.18719-.03466-.27734a13.5326,13.5326,0,0,0-4.70143-8.744l-46.27206-38.54737a12.27574,12.27574,0,0,0-7.13535-2.85c-21.17016-1.35912-128.79627-6.39337-168.52242,28.09055a10.936,10.936,0,0,1-8.88968,2.55179,11.1356,11.1356,0,0,1-7.71086-5.17294,45.57012,45.57012,0,0,0-13.00167-13.25824,69.16331,69.16331,0,0,0-7.28093-4.41709c-2.2259-1.17189-4.64594-2.30911-7.28094-3.40469-2.2675-.94309-4.68754-1.85147-7.28093-2.71825-13.44547-4.49336-31.419-7.84954-55.43913-8.97288-9.96448-.47153-20.79574-.53391-32.18866-.19414-10.40134.30511-21.45449.9361-32.84742,1.87915l-.16641.00694-77.0878,47.06257a13.431,13.431,0,0,0-6.2477,9.95758l-.15952,1.41457-24.4778,218.71234a13.718,13.718,0,0,0,3.15506,10.40828,12.58506,12.58506,0,0,0,9.56232,4.46564H536.658a11.178,11.178,0,0,1,6.94117,2.46164l8.2933,6.643a12.5385,12.5385,0,0,0,7.60687,2.75981l83.51579,1.36606h.20108a12.4541,12.4541,0,0,0,6.02584-1.56714l16.10819-8.94516a11.12148,11.12148,0,0,1,4.78463-1.38685l180.01245-9.50679a12.5116,12.5116,0,0,0,9.07691-4.64594A13.56815,13.56815,0,0,0,862.23372,500.61719Z" transform="translate(-305.92961 -102.51501)" fill="#e6e6e6"/><path d="M799.4004,462.185l-2.52-33.17-10.63-139.86-1.58-20.69a21.92382,21.92382,0,0,0-21.36-20.31c-38.95-1-109.48.76-144.09,23.95a19.1879,19.1879,0,0,1-25.11-3.1,55.80676,55.80676,0,0,0-16.94-12.65,95.54807,95.54807,0,0,0-14.56-5.86q-21.97494-7.02-55.46-8.53l-52.98-.31h-.09a14.44224,14.44224,0,0,0-14.4,13.53l-2.3,36.37-10.05,159.5a21.97453,21.97453,0,0,0,21.63,23.36c88.93,1.32,127.78,20.09,144.72,35.59a21.96679,21.96679,0,0,0,26.9,2.18c30.75-20.14,81.87-25.74,122.56-26.61,12.46-.26,23.94-.09,33.56.25a21.97354,21.97354,0,0,0,22.7-23.64Z" transform="translate(-305.92961 -102.51501)" fill="#fff"/><path d="M357.91438,508.44778c-.03319,0-.06777-.00138-.101-.00415a1.41553,1.41553,0,0,1-1.31267-1.51185l15.30112-216.05256a1.39921,1.39921,0,0,1,1.51185-1.31267,1.41554,1.41554,0,0,1,1.31267,1.51186L359.32526,507.131A1.41528,1.41528,0,0,1,357.91438,508.44778Z" transform="translate(-305.92961 -102.51501)" fill="#fff"/><path d="M376.32773,499.94931c-.03319,0-.06777-.00138-.101-.00415a1.41553,1.41553,0,0,1-1.31267-1.51185l15.30112-216.05256a1.39921,1.39921,0,0,1,1.51185-1.31267,1.41554,1.41554,0,0,1,1.31267,1.51186L377.73861,498.63249A1.41528,1.41528,0,0,1,376.32773,499.94931Z" transform="translate(-305.92961 -102.51501)" fill="#fff"/><path d="M393.32467,495.70008c-.0332,0-.06778-.00139-.101-.00415a1.41553,1.41553,0,0,1-1.31267-1.51186l15.30111-216.05255a1.39921,1.39921,0,0,1,1.51186-1.31267,1.41553,1.41553,0,0,1,1.31267,1.51185L394.73555,494.38326A1.4153,1.4153,0,0,1,393.32467,495.70008Z" transform="translate(-305.92961 -102.51501)" fill="#fff"/><path d="M410.32161,487.20161c-.0332,0-.06778-.00139-.101-.00415a1.41554,1.41554,0,0,1-1.31268-1.51186l15.30112-216.05255a1.39921,1.39921,0,0,1,1.51186-1.31267,1.41554,1.41554,0,0,1,1.31267,1.51185L411.73249,485.88479A1.4153,1.4153,0,0,1,410.32161,487.20161Z" transform="translate(-305.92961 -102.51501)" fill="#fff"/><path d="M845.15718,509.86419c.0332,0,.06778-.00138.101-.00415a1.41553,1.41553,0,0,0,1.31267-1.51185L831.26971,292.29564a1.39922,1.39922,0,0,0-1.51185-1.31268,1.41553,1.41553,0,0,0-1.31267,1.51186L843.7463,508.54737A1.4153,1.4153,0,0,0,845.15718,509.86419Z" transform="translate(-305.92961 -102.51501)" fill="#fff"/><path d="M826.74383,497.11649c.0332,0,.06778-.00139.101-.00415a1.41553,1.41553,0,0,0,1.31267-1.51185L812.85636,279.54793a1.39921,1.39921,0,0,0-1.51185-1.31267,1.41553,1.41553,0,0,0-1.31267,1.51185L825.333,495.79967A1.4153,1.4153,0,0,0,826.74383,497.11649Z" transform="translate(-305.92961 -102.51501)" fill="#fff"/><path d="M809.74689,482.95237c.0332,0,.06778-.00138.101-.00415a1.41553,1.41553,0,0,0,1.31267-1.51185L795.85942,265.38382a1.3992,1.3992,0,0,0-1.51185-1.31267,1.41553,1.41553,0,0,0-1.31267,1.51185L808.336,481.63555A1.41528,1.41528,0,0,0,809.74689,482.95237Z" transform="translate(-305.92961 -102.51501)" fill="#fff"/><path d="M462.14571,290.46133c31.92708-10.18627,67.54612-7.48949,97.79249,6.86086a128.767,128.767,0,0,1,24.30154,14.96765c2.12748,1.66973,5.155-1.317,3.00466-3.00467a139.18729,139.18729,0,0,0-97.705-28.65175,133.69837,133.69837,0,0,0-28.52335,5.73047c-2.59534.828-1.48609,4.932,1.12962,4.09744Z" transform="translate(-305.92961 -102.51501)" fill="#3f3d56"/><path d="M637.8296,313.93822c29.68384-15.60224,65.22951-19.00454,97.50383-10.14806a128.52039,128.52039,0,0,1,26.512,10.54121c2.41182,1.28694,4.56081-2.37985,2.14467-3.66908-30.7598-16.41326-67.684-20.19162-101.27415-11.04221a133.65686,133.65686,0,0,0-27.031,10.64905c-2.42152,1.27278-.27623,4.94155,2.14467,3.66909Z" transform="translate(-305.92961 -102.51501)" fill="#3f3d56"/><path d="M637.8296,342.26645c29.68384-15.60224,65.22951-19.00454,97.50383-10.14806a128.51987,128.51987,0,0,1,26.512,10.54122c2.41182,1.28693,4.56081-2.37985,2.14467-3.66909-30.7598-16.41326-67.684-20.19162-101.27415-11.04221a133.65686,133.65686,0,0,0-27.031,10.649c-2.42152,1.27278-.27623,4.94155,2.14467,3.66909Z" transform="translate(-305.92961 -102.51501)" fill="#3f3d56"/><path d="M765.02972,369.075a1.8212,1.8212,0,0,0-1.047-1.76127,139.34987,139.34987,0,0,0-80.222-15.02646c-.17335.01384-.33287.04161-.52006.05545h-.00695a4.25452,4.25452,0,0,0-.50622.07631,134.22314,134.22314,0,0,0-47.04176,14.49944,2.14427,2.14427,0,0,0-1.04707,1.84453v52.84569a2.14422,2.14422,0,0,0,2.69048,2.03867c.65182-.1872,1.30364-.3675,1.96934-.54085a210.62048,210.62048,0,0,1,45.3498-7.09374c.32593-.01384.65182-.02772.99159-.04161A237.56912,237.56912,0,0,1,723.05,417.31636a7.79956,7.79956,0,0,1,.77663.0832c.63793.06937,1.28975.14564,1.92773.22884.25656.02773.49925.05549.735.09709,2.48242.312,4.9441.66566,7.41268,1.04708q5.34624.85292,10.69257,1.9c.2219.0416.45074.09709.67954.13869,5.72073,1.13718,11.41375,2.4547,17.079,3.91087a2.15283,2.15283,0,0,0,2.69049-2.0525V369.15816A.17575.17575,0,0,0,765.02972,369.075Z" transform="translate(-305.92961 -102.51501)" fill="#3f3d56"/><path d="M687.09194,355.16883a6.98812,6.98812,0,0,0-5.0068-.43986,5.93389,5.93389,0,0,0-3.33484,3.13627,15.08318,15.08318,0,0,0-1.09769,4.31411c-.088.58389-.0935,1.32065.4934,1.59325a1.24284,1.24284,0,0,0,1.26123-.24972,3.72724,3.72724,0,0,0,.73848-1.03033,11.21525,11.21525,0,0,1,9.4739-5.15079l1.56875.62532A18.58017,18.58017,0,0,0,687.09194,355.16883Z" transform="translate(-305.92961 -102.51501)" fill="#ff6582"/><path d="M704.07049,367.349c-1.2174-1.79223-2.66-3.7058-4.91917-4.291-2.6163-.67771-5.30389.66859-7.58359,1.99712a221.54111,221.54111,0,0,0-19.6664,12.89771l.00687.06957,14.67535-.90083c3.53432-.21695,7.19006-.46382,10.31342-1.952a9.7255,9.7255,0,0,1,3.68357-1.37165,6.15648,6.15648,0,0,1,4.26687,2.05572c6.76333,6.41063,8.72051,16.214,16.30829,21.84622A206.082,206.082,0,0,0,704.07049,367.349Z" transform="translate(-305.92961 -102.51501)" fill="#fff"/><path d="M685.64213,415.97022c-.33958.01417-.66567.02835-.99142.04253-2.36529-.84981-4.7873-1.60055-7.23766-2.25222-1.58655-.42482-3.20111-.80728-4.816-1.133-1.82723-.39647-3.66829-.70821-5.50969-.97742a88.11476,88.11476,0,0,0-10.58055-.89217.19234.19234,0,1,1,0-.38246c.453,0,.90635.01418,1.34552.04253a88.23278,88.23278,0,0,1,10.59473,1.034c1.82723.29739,3.65445.65149,5.4675,1.04813,1.64291.36828,3.28583.77909,4.90073,1.23227Q682.27815,414.70959,685.64213,415.97022Z" transform="translate(-305.92961 -102.51501)" fill="#fff"/><path d="M726.49157,417.72655c-.24068-.04253-.48171-.07089-.73656-.09907-.97725-.80728-1.96866-1.5722-3.00262-2.32294-1.28915-.93488-2.6205-1.813-3.9802-2.6345a70.6711,70.6711,0,0,0-9.40516-4.78748,93.78572,93.78572,0,0,0-15.8921-5.01415,158.1359,158.1359,0,0,0-18.79546-2.94607c-6.31749-.65167-12.663-1.04813-19.00848-1.44477-.269-.01418-.28321-.41064,0-.39664.79327.05671,1.58655.09907,2.39365.15579,6.41639.39663,12.83277.85,19.20663,1.57237a146.42475,146.42475,0,0,1,18.76745,3.25764,91.27951,91.27951,0,0,1,15.38238,5.28319,69.94194,69.94194,0,0,1,8.27162,4.405c1.68545,1.06231,3.31453,2.19551,4.87237,3.39943C725.21693,416.66424,725.86843,417.1743,726.49157,417.72655Z" transform="translate(-305.92961 -102.51501)" fill="#fff"/><path d="M723.82888,417.40081a7.69527,7.69527,0,0,0-.7791-.08507c-.29739-.24068-.6093-.46736-.92053-.694a64.77854,64.77854,0,0,0-6.813-4.26341,72.16616,72.16616,0,0,0-6.58652-3.15857,92.52514,92.52514,0,0,0-15.89209-5.014,158.10729,158.10729,0,0,0-18.79581-2.94608c-6.31714-.65166-12.66264-1.04813-19.00814-1.44476-.269-.02836-.269-.41082,0-.39664.80746.05671,1.60038.09907,2.39366.15579,6.41638.39646,12.83277.84981,19.20662,1.57219a146.39352,146.39352,0,0,1,18.76745,3.25782,90.80435,90.80435,0,0,1,15.382,5.28318c1.86976.84982,3.697,1.77052,5.48168,2.77612A57.987,57.987,0,0,1,723.82888,417.40081Z" transform="translate(-305.92961 -102.51501)" fill="#fff"/><path d="M745.2732,420.81441c-.2265-.04254-.45335-.09908-.67985-.14161-.25486-.26921-.49588-.55242-.73656-.83581q-1.82688-2.10335-3.61192-4.24923c-4.68806-5.58058-9.13579-11.33129-13.32831-17.19509q-5.39661-7.52123-10.24063-15.33984c-1.544-2.46455-3.03131-4.95744-4.48991-7.4787q-1.6998-2.93172-3.31453-5.878c-.31157-.5666-.609-1.1332-.90635-1.6998-.69437-1.33151-1.3884-2.677-2.12462-3.9942a11.28767,11.28767,0,0,0-3.428-4.07927,5.01571,5.01571,0,0,0-2.43619-.83564,7.36587,7.36587,0,0,0-3.51267.90635A114.45039,114.45039,0,0,0,674.18359,373.662a107.685,107.685,0,0,0-18.10178,17.88929c-.16979.19831-.53842.01417-.38246-.19832.63731-.7931,1.28881-1.58638,1.9403-2.36547A108.58025,108.58025,0,0,1,674.76419,372.713c.01418-.01418.04253-.02835.05671-.04236.55225-.43917,1.10484-.864,1.67127-1.2748a115.92163,115.92163,0,0,1,10.935-7.13877q2.88919-1.67853,5.90633-3.18693c.49553-.25486,1.00559-.50989,1.51531-.75074.51006-.25486,1.02012-.49553,1.52983-.73656a8.33807,8.33807,0,0,1,3.24364-.89217c3.93767-.05671,5.963,3.90931,7.36527,6.58617.43917.83581.89252,1.67144,1.33169,2.50708,1.69963,3.15857,3.47014,6.30313,5.31155,9.405,1.11867,1.9263,2.28022,3.83859,3.456,5.73654,1.68544,2.70539,3.41342,5.38226,5.21229,8.04529a.01389.01389,0,0,0,.01418.01418c2.08209,3.14439,4.24924,6.23207,6.48728,9.30575q5.75763,7.88225,12.06785,15.41056Q743.03551,418.29315,745.2732,420.81441Z" transform="translate(-305.92961 -102.51501)" fill="#fff"/><path d="M765.04625,414.568v.6515c-1.40224-1.64292-2.83283-3.27182-4.24924-4.90073q-.89217-1.01978-1.78469-2.03955-3.78188-4.29177-7.606-8.55518c-2.56379-2.83283-5.12758-5.66565-7.71972-8.48429-.62314-.67985-1.24628-1.3597-1.88359-2.03955a14.66318,14.66318,0,0,0-1.65744-1.58655,6.15005,6.15005,0,0,0-2.02537-1.119,5.07747,5.07747,0,0,0-2.606-.02818c-.97758.22667-1.91229.58077-2.86117.87816-.97759.32575-1.94065.63732-2.9179.94889-1.95482.63749-3.89513,1.275-5.84995,1.91229a.1936.1936,0,0,1-.25486-.11342.19745.19745,0,0,1,.14178-.269c.4817-.15578.97724-.31156,1.47312-.46752,1.96866-.6515,3.92314-1.28881,5.89215-1.92613.97724-.32592,1.95448-.63749,2.93207-.94906a8.76284,8.76284,0,0,1,2.83282-.56659,6.40875,6.40875,0,0,1,4.16417,1.95465c.609.5666,1.16155,1.16138,1.7138,1.77051q.97723,1.06232,1.95483,2.12462,3.93022,4.29177,7.80409,8.61172,3.88822,4.33431,7.70554,8.68261.276.31875.55225.63749C762.2276,411.31017,763.62984,412.93925,765.04625,414.568Z" transform="translate(-305.92961 -102.51501)" fill="#fff"/><path d="M694.74,358.25885l-.3918.17132a10.69107,10.69107,0,0,0-8.63631-5.22851c-5.79888-.41194-10.89281,3.45259-11.35588,8.614a8.53048,8.53048,0,0,0,1.72435,5.9379l-.36368.215a8.88375,8.88375,0,0,1-1.79586-6.18381c.48188-5.37491,5.787-9.3994,11.82587-8.97047A11.133,11.133,0,0,1,694.74,358.25885Z" transform="translate(-305.92961 -102.51501)" fill="#ff6582"/><path d="M666.08607,368.70159a10.45864,10.45864,0,0,0-9.525.60631,150.15194,150.15194,0,0,1,15.45625,3.211C669.9089,371.41909,668.2596,369.69593,666.08607,368.70159Z" transform="translate(-305.92961 -102.51501)" fill="#fff"/><path d="M656.53178,369.30322l-.57311.41464c.19385-.14513.39538-.2812.60241-.41Z" transform="translate(-305.92961 -102.51501)" fill="#fff"/><path d="M739.92582,390.22336a4.78836,4.78836,0,0,0-2.06266-1.5328l-.80528.02827A85.05431,85.05431,0,0,0,761.387,413.47635Q750.6564,401.84987,739.92582,390.22336Z" transform="translate(-305.92961 -102.51501)" fill="#fff"/><path d="M673.79094,371.708c-.22844-.22668-.45546-.45335-.68539-.68a19.89084,19.89084,0,0,0-6.24857-4.57235,10.00066,10.00066,0,0,0-3.798-.78365,11.98479,11.98479,0,0,0-3.9435.76552c-.59373.21113-1.17438.45075-1.74623.70592-.65341.29273-1.29517.6049-1.93395.91965q-1.79867.886-3.55064,1.84966-3.486,1.91768-6.75355,4.12807-1.69389,1.14632-3.31787,2.36777-1.51047,1.13466-2.95983,2.33021c-.20662.16969-.51514-.10491-.30851-.27459.25466-.21114.51223-.421.7698-.62821q1.09138-.8782,2.21774-1.72273,2.05392-1.54269,4.21421-2.96619,3.35934-2.21495,6.94994-4.12936,1.7943-.95592,3.638-1.83153c.37112-.17616.74657-.34844,1.12635-.51164a19.28065,19.28065,0,0,1,2.67753-.97017,10.64418,10.64418,0,0,1,4.044-.35361,11.41889,11.41889,0,0,1,3.73112,1.14892,24.48209,24.48209,0,0,1,6.186,4.93243C674.28576,371.61863,673.97866,371.89453,673.79094,371.708Z" transform="translate(-305.92961 -102.51501)" fill="#fff"/><path d="M462.14571,318.78957c31.92708-10.18628,67.54612-7.4895,97.79249,6.86085a128.767,128.767,0,0,1,24.30154,14.96765c2.12748,1.66973,5.155-1.317,3.00466-3.00467a139.18734,139.18734,0,0,0-97.705-28.65175,133.69837,133.69837,0,0,0-28.52335,5.73047c-2.59534.828-1.48609,4.932,1.12962,4.09745Z" transform="translate(-305.92961 -102.51501)" fill="#3f3d56"/><path d="M462.14571,347.1178c31.92708-10.18627,67.54612-7.4895,97.79249,6.86085a128.767,128.767,0,0,1,24.30154,14.96765c2.12748,1.66973,5.155-1.317,3.00466-3.00467a139.18734,139.18734,0,0,0-97.705-28.65175,133.69837,133.69837,0,0,0-28.52335,5.73047c-2.59534.828-1.48609,4.932,1.12962,4.09745Z" transform="translate(-305.92961 -102.51501)" fill="#3f3d56"/><path d="M462.14571,375.446c31.92708-10.18627,67.54612-7.4895,97.79249,6.86085a128.767,128.767,0,0,1,24.30154,14.96765c2.12748,1.66973,5.155-1.317,3.00466-3.00467a139.18734,139.18734,0,0,0-97.705-28.65175,133.69837,133.69837,0,0,0-28.52335,5.73047c-2.59534.828-1.48609,4.932,1.12962,4.09745Z" transform="translate(-305.92961 -102.51501)" fill="#3f3d56"/><path d="M462.14571,403.77426c31.92708-10.18627,67.54612-7.48949,97.79249,6.86085a128.767,128.767,0,0,1,24.30154,14.96765c2.12748,1.66973,5.155-1.317,3.00466-3.00466a139.1873,139.1873,0,0,0-97.705-28.65176,133.69837,133.69837,0,0,0-28.52335,5.73047c-2.59534.828-1.48609,4.932,1.12962,4.09745Z" transform="translate(-305.92961 -102.51501)" fill="#3f3d56"/><path d="M462.14571,432.10249c31.92708-10.18627,67.54612-7.48949,97.79249,6.86085A128.767,128.767,0,0,1,584.23974,453.931c2.12748,1.66973,5.155-1.317,3.00466-3.00466a139.1873,139.1873,0,0,0-97.705-28.65176,133.69837,133.69837,0,0,0-28.52335,5.73047c-2.59534.828-1.48609,4.932,1.12962,4.09745Z" transform="translate(-305.92961 -102.51501)" fill="#3f3d56"/><path d="M577.17468,244.883v79.39686c0,1.35218-2.35766,2.48247-5.54044,2.78757-.55473.05545-1.13722.08321-1.7405.08321a14.50725,14.50725,0,0,1-5.14518-.83906,6.62848,6.62848,0,0,1-.8876-.423c-.79051-.46458-1.24815-1.01241-1.24815-1.60875v-85.5198c2.59339.86678,5.01343,1.77516,7.28093,2.71825C572.52874,242.57391,574.94878,243.71113,577.17468,244.883Z" transform="translate(-305.92961 -102.51501)" fill="#00bfa6"/><rect x="299.68351" y="169.59186" width="2.08027" height="256.82971" fill="#e6e6e6"/><path d="M793.35041,479.075a22.01957,22.01957,0,0,1-16.65,6.75c-9.62-.34-21.1-.51-33.56-.25l-.07-.06,54-70,2.33,46.67A22.02245,22.02245,0,0,1,793.35041,479.075Z" transform="translate(-305.92961 -102.51501)" fill="#f2f2f2"/><polygon points="352.991 621.21 350.111 644.59 347.911 662.36 347.031 669.53 334.511 669.53 334.511 663.16 334.501 642.08 334.501 621.21 352.991 621.21" fill="#ffb6b6"/><polygon points="265.691 618.76 262.141 629.72 259.291 638.51 258.801 640.02 256.851 646.03 252.731 658.74 250.681 665.07 239.291 662.87 238.381 662.7 239.121 658.88 239.571 656.55 244.551 630.73 245.361 626.57 245.491 625.9 245.861 623.97 247.541 615.26 259.681 617.6 261.081 617.87 265.691 618.76" fill="#ffb6b6"/><path d="M677.73036,584.495c-7.16,39.35-8.95,56.34-8.95,56.34s5.37,6.26,1.79,9.84,0,10.73,0,10.73l-8.05,86.75-6.48-1.05005-15.61-2.51-5.63-.91,3.58-81.38s-3.58-7.16-1.79-8.95c1.79-1.79-1.79-12.52-1.79-12.52l-4.47-84.96-27.73,93.01s2.68995,3.58,0,6.26c-2.68005,2.68-8.04,16.1-8.04,16.1l-16.49,57.7-1.4,4.9-8.6-1.61-9.36-1.76-1.72-.31995-3.06-.58-1.97-.37-.67-.12-3.24-.61.98-4.35.51-2.29,13.95-61.96.32-1.43.34-1.51s-1.79-4.47.89-7.16a6.98829,6.98829,0,0,0,1.79-6.26,2.44073,2.44073,0,0,1-.24-.3,3.71247,3.71247,0,0,1-.64-1.46c-.24-1.12-.03-2.69,1.78-4.5a7.63588,7.63588,0,0,0,1.27-1.82c2.72-5.15,4.09-16.06,4.09-16.06s2.42-86.41,10.34-99.61a4.2687,4.2687,0,0,1,1.29-1.45c8.94-5.36,94.79,0,94.79,0s.12.62.31,1.8C680.85041,526.745,683.80037,551.115,677.73036,584.495Z" transform="translate(-305.92961 -102.51501)" fill="#2f2e41"/><path id="fa90ba82-4976-41ea-9b03-d8a96d925ef6-145" data-name="Path 2938" d="M674.91671,425.74638l2.50682-15.10134,46.16309,7.769,65.4957,4.68612a9.83737,9.83737,0,1,1-1.67706,10.62413l-40.16962,2.703Z" transform="translate(-305.92961 -102.51501)" fill="#ffb6b6"/><path id="fb44d525-e05f-4433-9150-930b9a652ce4-146" data-name="Path 2946" d="M640.41028,415.29364l3.2594-13.48062s17.70011-3.25819,31.69385-.14082l52.64514,10.10317-4.26105,31.82339Z" transform="translate(-305.92961 -102.51501)" fill="#00bfa6"/><path id="ed2da19a-1c50-4597-bafc-ed19ebf50383-147" data-name="Path 2948" d="M518.21673,526.29939l29.453-63.98388L569.164,417.04636l18.64142,10.97119L529.7746,533.34027a9.83732,9.83732,0,1,1-12.0706-6.91711q.25479-.0692.51308-.12458Z" transform="translate(-305.92961 -102.51501)" fill="#ffb6b6"/><path id="a46ff28a-e8a9-4d92-ab46-12a75733fdc3-148" data-name="Path 2949" d="M603.15949,397.6496l-14.29627-6.55925s-2.53461-.87961-8.00126,6.6895-52.49079,78.99068-52.49079,78.99068L558.232,490.26861Z" transform="translate(-305.92961 -102.51501)" fill="#00bfa6"/><path d="M675.10041,785.965l-18.61-12.86005V764.715l-2.65.16-13.4.8-3.53.21-2.44,29.22-.03.41h8.79l.08-.41,1.49-7.88995,3.81,7.88995.2.41h23.32a5.34343,5.34343,0,0,0,2.04-.41,5.23693,5.23693,0,0,0,.93005-9.13995Z" transform="translate(-305.92961 -102.51501)" fill="#2f2e41"/><path d="M575.84041,786.735l-8.11005-8.84-5.66-6.18-.93-1.02-.14-.15-.45-.49,1.87-8.18-3.76-.62-13.16-2.19-.71-.11-1.4-.24-.32-.05-4.49,14.15-4.07,12.79-.44,1.4,5.41,1.23,3.16.72,1.56-3.58.17-.38,1.02-2.35v-.01l.63-1.42,2.07,8.98.36.08.05.01,1.27.29,2.48.57,17.34,3.96,1.23.28a5.26176,5.26176,0,0,0,6.27-3.95A5.22555,5.22555,0,0,0,575.84041,786.735Z" transform="translate(-305.92961 -102.51501)" fill="#2f2e41"/><path d="M656.10017,356.39383a29.0569,29.0569,0,0,1-19.66992,14.56c-.46.1-.91992.18-1.39014.25a29.12482,29.12482,0,1,1,21.06006-14.81Z" transform="translate(-305.92961 -102.51501)" fill="#ffb6b6"/><path d="M644.52009,316.86386c-9.52978-6.55407-17.92187-7.55243-24.81543-5.69354a9.062,9.062,0,0,0-3.625-3.21887c-5.37646-13.54724-21.73828-21.68305-35.77978-17.72809-14.13233,3.98053-23.8833,19.635-21.22412,34.0744,1.648,8.95026,7.28076,16.70062,9.54638,25.51483,4.38575,17.06275-6.313,36.6081-23.0498,42.10828,15.84668,3.18188,33.29-6.49768,38.9751-21.628,2.76123-7.34906,2.92773-15.37287,3.2788-23.2157a76.96923,76.96923,0,0,1,1.97871-16.07627,34.34932,34.34932,0,0,1,2.5584-6.84524,23.42431,23.42431,0,0,1,11.21045-10.87628,8.94125,8.94125,0,0,0,1.30567,8.04938c-3.71631,4.65545-5.73926,9.69006-5.73926,12.70514-7.72022,14.11,3.31982,26.23,17.43018,33.95a28.90829,28.90829,0,0,0,18.46972,3.22l.59033-2.52.79981,2.27,2.66992,7.61005q4.62012,2.235,9.16016,4.9c-1.14991-5.4-2.08008-10.79-2.72022-16.06-.88623-7.17279,2.20313-17.85126,4.43164-24.34509a38.33123,38.33123,0,0,0,2.09864-12.43976v-.18512l2.16992,6.97,7.8999-3.37C660.67048,325.60385,662.14021,316.03385,644.52009,316.86386Z" transform="translate(-305.92961 -102.51501)" fill="#2f2e41"/><path d="M583.823,510.2677a25.54773,25.54773,0,0,0,0-12.52014c-1.78857-6.26013,1.78864-8.943,1.78864-8.943l.89428-96.58472c3.77826-3.77832,13.90119-3.83985,19.56446-3.5459v-4.25342a5.90555,5.90555,0,0,1,5.90551-5.90552h26.189a5.90556,5.90556,0,0,1,5.90552,5.90552v5.09839l7.68121.12085c13.376.99634,25.07886,14.20606,25.07886,14.20606l-11.62592,44.71508s3.57721,36.66638,8.04871,41.13794c4.47155,4.47144,2.68292,7.1543,2.68292,7.1543s-2.68292,9.8374,2.68292,13.41455c5.36579,3.57727,1.78858,9.8374,1.78858,9.8374s-96.58466,1.78858-99.26752-.89428C578.45723,516.528,583.823,510.2677,583.823,510.2677Z" transform="translate(-305.92961 -102.51501)" fill="#00bfa6"/><path d="M761.78041,796.295a1.18646,1.18646,0,0,1-1.19,1.19h-280.29a1.19,1.19,0,1,1,0-2.38h280.29A1.1865,1.1865,0,0,1,761.78041,796.295Z" transform="translate(-305.92961 -102.51501)" fill="#ccc"/></svg>