<svg width="861" height="266" viewBox="0 0 861 266" fill="none" xmlns="http://www.w3.org/2000/svg">
<path d="M262.989 113.84C262.642 112.827 262.059 111.912 261.289 111.17C261.004 110.906 260.696 110.668 260.369 110.46C257.759 108.72 253.859 108.33 251.379 110.46C251.129 110.677 250.898 110.914 250.689 111.17C249.949 112.08 249.189 112.97 248.409 113.84C247.129 115.3 245.819 116.71 244.449 118.08C244.059 118.46 243.669 118.85 243.269 119.23C243.039 119.46 242.809 119.68 242.579 119.9C241.699 120.74 240.799 121.55 239.889 122.35C239.409 122.78 238.929 123.2 238.439 123.61C237.709 124.22 236.979 124.83 236.239 125.42C236.169 125.47 236.099 125.52 236.029 125.58C236.009 125.59 235.999 125.61 235.979 125.62C235.969 125.62 235.959 125.62 235.949 125.64C235.922 125.651 235.897 125.668 235.879 125.69C235.659 125.84 235.509 125.94 235.399 126.03C235.439 126.01 235.479 125.98 235.519 125.96C235.339 126.1 235.149 126.24 234.969 126.38C233.219 127.67 231.429 128.91 229.599 130.07C225.071 132.968 220.315 135.493 215.379 137.62C215.049 137.75 214.709 137.89 214.369 138.02C201.443 143.315 187.422 145.382 173.519 144.04C172.099 143.93 170.679 143.78 169.259 143.59C167.619 143.35 165.989 143.06 164.369 142.73C158.201 141.499 152.167 139.678 146.349 137.29C139.071 133.957 132.149 129.897 125.689 125.17C124.689 124.46 123.679 123.75 122.669 123.06C123.819 120.24 124.949 117.42 126.049 114.58C126.599 113.21 127.129 111.84 127.649 110.46C131.739 99.83 135.579 89.1 139.259 78.33C142.979 67.42 146.489 56.4467 149.789 45.41C150.129 44.29 150.459 43.17 150.779 42.05C152.509 36.22 154.169 30.3767 155.759 24.52C155.909 23.9501 156.069 23.3901 156.209 22.82C156.669 21.14 157.119 19.46 157.559 17.78C158.559 13.99 156.299 9.46002 152.319 8.55002C150.402 8.0587 148.37 8.33037 146.65 9.30784C144.93 10.2853 143.657 11.8922 143.099 13.79C142.669 15.41 142.239 17.02 141.799 18.64C139.689 26.47 137.469 34.2733 135.139 42.05C134.799 43.17 134.459 44.29 134.119 45.41C128.979 62.35 123.335 79.12 117.189 95.72C116.449 97.73 115.699 99.7334 114.939 101.73C114.569 102.71 114.199 103.69 113.819 104.67C113.089 106.6 112.339 108.53 111.589 110.46C111.159 111.59 110.719 112.72 110.279 113.84C109.989 114.55 109.709 115.26 109.429 115.96C106.577 114.936 103.623 114.225 100.619 113.84L100.139 113.78C97.809 113.5 95.453 113.52 93.1286 113.84C89.6496 114.246 86.3023 115.411 83.3233 117.253C80.3443 119.095 77.8062 121.569 75.8886 124.5C71.1186 132.01 71.1786 142.75 77.8686 149.13C84.7586 155.7 95.1886 155.65 103.299 151.54C107.596 149.215 111.22 145.818 113.819 141.68C114.814 140.18 115.729 138.628 116.559 137.03C116.769 137.17 116.979 137.31 117.189 137.46C117.989 138.02 118.789 138.59 119.579 139.15C124.182 142.485 129.032 145.463 134.089 148.06C144.961 153.465 156.664 157.004 168.709 158.53C168.979 158.56 169.239 158.6 169.509 158.63C170.839 158.8 172.179 158.93 173.519 159.04C192.741 160.489 211.986 156.555 229.099 147.68C230.549 146.93 231.985 146.143 233.409 145.32C235.619 144.04 237.779 142.68 239.889 141.24C241.039 140.46 242.159 139.67 243.269 138.84C248.119 135.267 252.641 131.268 256.779 126.89C258.349 125.24 259.852 123.537 261.289 121.78C262.647 120.343 263.43 118.457 263.489 116.48C263.481 115.577 263.311 114.683 262.989 113.84V113.84ZM97.3986 137.66C97.6086 137.51 97.8186 137.35 98.0186 137.19C97.9586 137.34 97.6686 137.51 97.3986 137.66H97.3986ZM100.609 134.43C100.379 134.69 100.169 134.95 99.9386 135.21C99.2389 135.993 98.4872 136.728 97.6886 137.41C97.5786 137.51 97.4586 137.61 97.3386 137.7C97.3373 137.7 97.3359 137.7 97.3347 137.701C97.3335 137.701 97.3324 137.702 97.3315 137.703C97.3305 137.704 97.3298 137.705 97.3293 137.706C97.3288 137.707 97.3286 137.709 97.3286 137.71C97.1841 137.775 97.0438 137.848 96.9085 137.93C96.4785 138.19 96.0386 138.43 95.5886 138.65C94.7075 138.974 93.8011 139.225 92.8786 139.4C92.1697 139.452 91.4583 139.458 90.7486 139.42H90.7286C90.2388 139.311 89.7548 139.178 89.2786 139.02C89.0386 138.9 88.8086 138.76 88.5786 138.62C88.4886 138.54 88.4085 138.46 88.3586 138.41C88.2609 138.321 88.1706 138.224 88.0887 138.12C88.0887 138.119 88.0884 138.117 88.0879 138.116C88.0874 138.115 88.0867 138.114 88.0858 138.113C88.0849 138.112 88.0837 138.111 88.0825 138.111C88.0813 138.11 88.08 138.11 88.0786 138.11C87.9686 137.91 87.8486 137.71 87.7386 137.51C87.7329 137.505 87.7294 137.498 87.7286 137.49C87.6486 137.24 87.5786 136.98 87.5186 136.72C87.497 136.263 87.5003 135.806 87.5286 135.35C87.6628 134.711 87.8433 134.083 88.0686 133.47C88.2711 133.036 88.5016 132.615 88.7586 132.21C88.7786 132.17 88.8786 132.01 88.9886 131.83C88.9986 131.82 88.9986 131.82 88.9986 131.81C89.1486 131.64 89.2987 131.46 89.4587 131.3C89.7287 131 90.0187 130.74 90.3087 130.47C90.8726 130.101 91.4569 129.764 92.0587 129.46C93.0133 129.121 93.9929 128.857 94.9886 128.67C96.457 128.553 97.9327 128.567 99.3987 128.71C100.787 128.951 102.157 129.288 103.499 129.72C102.686 131.298 101.76 132.815 100.729 134.26C100.689 134.32 100.649 134.38 100.609 134.43V134.43ZM89.4886 131.14C89.4005 131.281 89.2965 131.412 89.1786 131.53C89.2579 131.383 89.3629 131.251 89.4886 131.14V131.14Z" fill="#3F3D56"/>
<path d="M232.929 11.71C232.839 14.85 232.749 17.99 232.659 21.13C232.469 28.1 232.273 35.0733 232.069 42.05C231.859 49.9 231.639 57.7466 231.409 65.59C231.299 69.64 231.186 73.69 231.069 77.74C230.759 88.65 230.453 99.5566 230.149 110.46C230.119 111.59 230.079 112.71 230.049 113.84C229.899 119.25 229.749 124.66 229.599 130.07C229.429 135.94 229.263 141.81 229.099 147.68C228.979 152.08 228.856 156.483 228.729 160.89C227.829 192.82 226.929 224.75 226.029 256.68C225.991 258.657 225.189 260.543 223.791 261.941C222.392 263.34 220.507 264.142 218.529 264.18C216.545 264.164 214.647 263.369 213.244 261.966C211.841 260.563 211.045 258.664 211.029 256.68C211.529 238.72 212.036 220.76 212.549 202.8C212.999 186.56 213.456 170.32 213.919 154.08C214.069 148.73 214.219 143.377 214.369 138.02C214.599 129.96 214.826 121.9 215.049 113.84C215.079 112.71 215.119 111.59 215.149 110.46C215.169 109.47 215.199 108.49 215.229 107.5C215.669 91.85 216.109 76.1966 216.549 60.54C216.729 54.38 216.903 48.2167 217.069 42.05C217.269 35.02 217.469 27.9933 217.669 20.97C217.759 17.88 217.839 14.8 217.929 11.71C217.967 9.73274 218.77 7.8471 220.168 6.44873C221.566 5.05036 223.452 4.24798 225.429 4.20996C227.413 4.22595 229.312 5.02127 230.715 6.42435C232.118 7.82742 232.913 9.72578 232.929 11.71V11.71Z" fill="#3F3D56"/>
<path d="M644.356 13.7912C636.491 43.5709 627.092 72.9238 616.195 101.732C613.188 109.679 610.112 117.609 606.823 125.444L607.579 123.653C606.112 127.385 604.237 130.943 601.99 134.265C601.837 134.479 601.681 134.691 601.523 134.901C602.3 133.907 602.448 133.711 601.966 134.312C601.712 134.613 601.461 134.914 601.198 135.207C600.498 135.991 599.747 136.727 598.949 137.411C598.748 137.582 598.544 137.751 598.337 137.915L599.275 137.186C599.166 137.443 598.403 137.783 598.165 137.929C597.394 138.394 596.59 138.801 595.76 139.147L597.551 138.391C596.19 138.94 594.771 139.329 593.32 139.552L595.314 139.284C593.889 139.481 592.445 139.496 591.016 139.33L593.01 139.598C591.841 139.437 590.697 139.129 589.605 138.681L591.397 139.437C590.814 139.183 590.253 138.884 589.718 138.541C589.446 138.364 588.613 137.732 589.703 138.565C590.836 139.431 589.849 138.64 589.615 138.41C589.421 138.218 589.246 138.01 589.056 137.815C588.173 136.91 590.052 139.371 589.452 138.313C589.132 137.783 588.839 137.237 588.574 136.676L589.33 138.468C588.986 137.615 588.742 136.726 588.602 135.817L588.87 137.81C588.727 136.68 588.726 135.536 588.867 134.406L588.599 136.399C588.783 135.137 589.117 133.902 589.594 132.719L588.838 134.511C589.171 133.715 589.565 132.947 590.016 132.212C590.224 131.833 590.468 131.474 590.744 131.141C590.793 131.157 589.476 132.654 590.175 131.898C590.358 131.7 590.529 131.492 590.714 131.296C591.01 130.982 591.328 130.695 591.64 130.398C592.684 129.404 590.178 131.364 591.383 130.577C592.257 130.003 593.176 129.501 594.132 129.078L592.341 129.834C593.942 129.176 595.621 128.726 597.336 128.494L595.342 128.762C597.49 128.515 599.661 128.541 601.803 128.838L599.809 128.571C602.521 128.982 605.172 129.727 607.701 130.791L605.909 130.034C611.299 132.348 616.072 135.784 620.837 139.152C625.44 142.485 630.289 145.463 635.343 148.059C646.216 153.465 657.92 157.005 669.966 158.533C687.241 160.649 704.771 158.393 720.948 151.971C737.125 145.55 751.43 135.169 762.551 121.781C763.908 120.342 764.69 118.454 764.748 116.477C764.734 114.491 763.946 112.589 762.551 111.174C759.8 108.648 754.602 107.935 751.945 111.174C749.426 114.249 746.719 117.163 743.838 119.901C742.493 121.177 741.112 122.414 739.696 123.611C738.886 124.295 738.066 124.965 737.235 125.622C736.841 125.933 735.616 126.76 737.498 125.425C737.066 125.731 736.653 126.065 736.227 126.379C729.929 131.022 723.105 134.904 715.895 137.944L717.687 137.188C709.95 140.433 701.825 142.659 693.516 143.811L695.509 143.543C686.961 144.667 678.301 144.654 669.756 143.505L671.749 143.773C663.206 142.599 654.851 140.324 646.892 137.002L648.684 137.758C641.004 134.36 633.716 130.139 626.948 125.167C623.425 122.559 619.71 120.221 615.835 118.173C611.32 115.867 606.431 114.381 601.397 113.785C591.958 112.674 582.34 116.35 577.151 124.505C572.375 132.01 572.437 142.749 579.124 149.13C586.012 155.703 596.443 155.647 604.56 151.536C612.377 147.576 617.073 139.35 620.375 131.594C627.806 114.139 634.385 96.2803 640.515 78.3309C646.579 60.5728 652.079 42.6351 657.013 24.5176C657.624 22.2737 658.227 20.0275 658.82 17.7789C659.821 13.9902 657.559 9.45891 653.582 8.55302C651.665 8.05958 649.631 8.33005 647.91 9.30736C646.189 10.2847 644.914 11.8924 644.356 13.7913L644.356 13.7912Z" fill="#3F3D56"/>
<path d="M719.189 11.7096L716.489 107.503L713.804 202.797L712.285 256.681C712.302 258.664 713.098 260.562 714.501 261.965C715.903 263.368 717.801 264.164 719.785 264.181C721.762 264.142 723.648 263.34 725.046 261.942C726.445 260.543 727.247 258.658 727.285 256.681L729.985 160.887L732.67 65.5932L734.189 11.7096C734.172 9.7257 733.376 7.82784 731.973 6.42496C730.57 5.02208 728.673 4.22648 726.689 4.20959C724.712 4.24781 722.826 5.05025 721.428 6.44858C720.029 7.8469 719.227 9.73243 719.189 11.7096V11.7096Z" fill="#3F3D56"/>
<path opacity="0.2" d="M459.592 229.935H461.92V123.893H516.249V121.571H461.92V76.8262H503.876C503.261 76.0439 502.628 75.2716 501.977 74.5092H461.92V44.9564C461.15 44.6279 460.374 44.3114 459.592 44.0128V74.5092H413.94V36.644C413.157 36.6799 412.387 36.7336 411.611 36.7993V74.5093H375.191V46.2581C374.408 46.6045 373.638 46.9688 372.874 47.351V74.5092H342.258V76.8262H372.874V121.571H342.258V123.893H372.874V229.935H375.191V123.893C379.974 123.892 384.71 124.834 389.129 126.664C393.548 128.494 397.564 131.176 400.946 134.559C404.328 137.941 407.01 141.956 408.84 146.375C410.67 150.794 411.612 155.531 411.611 160.314V229.935H413.94V123.893H459.592V229.935ZM375.191 121.571V76.8262H411.611V121.571H375.191ZM413.94 121.571V76.8262H414.853C420.729 76.8266 426.547 77.9842 431.975 80.233C437.403 82.4819 442.335 85.7778 446.489 89.9327C450.644 94.0876 453.939 99.0201 456.187 104.449C458.435 109.877 459.592 115.695 459.592 121.571H413.94Z" fill="black"/>
<path d="M445.369 198.14C442.437 211.219 435.414 223.023 425.319 231.84C424.579 232.48 423.839 233.1 423.069 233.71C421.199 233.88 419.343 234.053 417.499 234.23C415.969 234.37 414.459 234.52 412.959 234.66L412.689 234.69L412.499 233.05L411.739 226.41C408.791 221.597 406.964 216.182 406.392 210.566C405.821 204.951 406.521 199.278 408.439 193.97C411.079 186.85 415.859 180.56 420.559 174.32C427.049 165.7 433.359 157.18 433.589 146.67C436.783 150.757 439.438 155.237 441.489 160C439.554 160.911 437.814 162.192 436.369 163.77C435.959 164.22 435.549 164.85 435.829 165.39C436.069 165.85 436.669 165.96 437.189 166.02C438.439 166.15 439.699 166.28 440.949 166.41C441.949 166.52 442.949 166.62 443.949 166.73C445.159 170.701 445.98 174.78 446.399 178.91C447.073 185.334 446.726 191.825 445.369 198.14V198.14Z" fill="#3F3D56"/>
<path d="M478.569 171.93C472.669 176.22 469.219 182.39 466.539 189.19C463.792 190.069 461.321 191.647 459.369 193.77C458.959 194.22 458.549 194.85 458.829 195.39C459.069 195.85 459.669 195.96 460.189 196.02C461.439 196.15 462.699 196.28 463.949 196.41C461.269 204.45 458.809 212.77 454.069 219.56C450.916 224.043 446.807 227.769 442.039 230.47C440.738 231.211 439.396 231.875 438.019 232.46C432.939 232.85 427.955 233.267 423.069 233.71C421.199 233.88 419.342 234.053 417.499 234.23C415.969 234.37 414.459 234.52 412.959 234.66C412.949 234.11 412.949 233.56 412.959 233.01C413.275 218.359 418.665 204.271 428.209 193.15C428.659 192.63 429.119 192.12 429.589 191.61C434.424 186.446 440.11 182.15 446.399 178.91C456.308 173.758 467.415 171.348 478.569 171.93V171.93Z" fill="#00BFA6"/>
<path d="M419.229 229.1L418.079 232.5L417.499 234.23C415.969 234.37 414.459 234.52 412.959 234.66L412.689 234.69C411.029 234.86 409.379 235.03 407.729 235.2C407.299 234.7 406.869 234.19 406.449 233.67C396.011 221.03 391.001 204.773 392.513 188.45C394.025 172.128 401.937 157.067 414.519 146.56C413.199 153.47 414.739 160.09 417.269 166.66C416.999 166.77 416.739 166.88 416.489 167C414.553 167.911 412.814 169.192 411.369 170.77C410.959 171.22 410.549 171.85 410.829 172.39C411.069 172.85 411.669 172.96 412.189 173.02C413.439 173.15 414.699 173.28 415.949 173.41C416.949 173.52 417.949 173.62 418.949 173.73C419.419 173.78 419.889 173.83 420.359 173.88C420.429 174.03 420.489 174.17 420.559 174.32C423.409 180.5 426.479 186.71 428.209 193.15C428.643 194.766 428.983 196.405 429.229 198.06C429.999 203.653 429.5 209.347 427.769 214.72C426.037 220.094 423.119 225.009 419.229 229.1V229.1Z" fill="#00BFA6"/>
<path d="M519.886 84.0606C511.277 67.2684 497.94 53.1397 482.254 42.757C466.517 32.3886 448.46 26.0744 429.691 24.3771C427.231 24.1535 424.765 24.0226 422.292 23.9842C419.371 23.9405 375.426 36.616 360.705 46.9664C345.992 57.1906 333.889 70.7305 325.372 86.4934C316.87 102.343 312.688 120.15 313.247 138.127C313.975 156.212 319.016 173.861 327.949 189.603C336.76 205.293 349.271 218.594 364.394 228.348C379.731 238.135 395.139 264.084 413.248 265C431.494 265.923 452.302 241.445 468.943 234.013C485.584 226.519 499.971 214.794 510.669 200.008C521.064 185.517 527.79 168.721 530.268 151.06C532.841 132.977 531.642 114.327 525.466 97.0439C523.882 92.6029 522.018 88.2664 519.886 84.0606C518.107 80.5554 512.89 79.2647 509.625 81.37C507.942 82.4059 506.724 84.0504 506.223 85.9614C505.722 87.8725 505.977 89.9032 506.934 91.6314C507.979 93.6899 508.951 95.7824 509.849 97.909L509.093 96.1173C512.493 104.292 514.805 112.879 515.97 121.656L515.702 119.662C516.941 129.184 516.918 138.828 515.636 148.344L515.904 146.35C514.607 155.866 512.067 165.17 508.349 174.025L509.105 172.233C507.192 176.751 504.963 181.128 502.434 185.331C501.152 187.455 499.791 189.529 498.353 191.553C497.721 192.441 497.07 193.314 496.414 194.184C495.558 195.32 497.581 192.701 496.696 193.815C496.546 194.004 496.396 194.195 496.244 194.384C495.79 194.952 495.33 195.514 494.863 196.072C491.745 199.791 488.342 203.263 484.686 206.455C483.775 207.25 482.849 208.027 481.908 208.786C481.44 209.165 480.976 209.559 480.488 209.911C480.506 209.898 482.067 208.712 481.143 209.4C480.853 209.617 480.565 209.836 480.273 210.052C478.334 211.489 476.342 212.853 474.299 214.144C469.596 217.107 464.661 219.687 459.544 221.857L461.335 221.101C452.507 224.817 443.229 227.356 433.738 228.653L435.732 228.385C426.247 229.667 416.633 229.684 407.143 228.435L409.137 228.703C400.512 227.545 392.075 225.264 384.042 221.919L385.833 222.675C381.18 220.71 376.693 218.372 372.417 215.684C370.301 214.35 368.24 212.935 366.234 211.436C365.947 211.223 365.664 211.006 365.379 210.791C364.463 210.1 366.036 211.301 366.049 211.309C365.517 210.927 365.004 210.518 364.514 210.084C363.545 209.295 362.591 208.488 361.652 207.662C357.897 204.355 354.39 200.775 351.159 196.953C350.351 195.997 349.559 195.027 348.785 194.042C348.45 193.616 347.839 192.752 349.189 194.571C349.012 194.332 348.827 194.097 348.648 193.859C348.217 193.287 347.792 192.711 347.372 192.131C345.904 190.099 344.508 188.017 343.184 185.885C340.194 181.059 337.584 176.008 335.379 170.777L336.135 172.568C332.526 163.982 330.058 154.959 328.795 145.731L329.063 147.725C327.922 139.219 327.906 130.6 329.014 122.089L328.746 124.083C329.882 115.842 332.099 107.786 335.341 100.124L334.585 101.916C336.624 97.1191 339.029 92.4866 341.78 88.0593C343.157 85.8438 344.616 83.6823 346.158 81.5747C346.508 81.0958 346.862 80.6198 347.22 80.1468C347.544 79.7189 348.435 78.6535 346.915 80.5352C347.064 80.3508 347.207 80.1609 347.354 79.9748C348.2 78.9031 349.066 77.8481 349.954 76.8099C353.311 72.8791 356.949 69.196 360.837 65.7891C361.82 64.9279 362.818 64.0849 363.832 63.26C364.292 62.8852 364.756 62.5143 365.223 62.1472C365.409 62.0004 365.598 61.8564 365.784 61.7086C363.787 63.2981 365.229 62.1412 365.683 61.8015C367.772 60.2359 369.917 58.7488 372.118 57.3401C377.011 54.2112 382.158 51.499 387.504 49.2322L385.713 49.9883C393.473 46.7299 427.854 39.0391 434.107 39.8786L432.113 39.6106C441.304 40.8937 450.287 43.3756 458.833 46.993L457.041 46.237C461.372 48.0758 465.581 50.1899 469.641 52.5662C471.67 53.7555 473.66 55.0097 475.609 56.3287C476.531 56.9531 477.444 57.5914 478.347 58.2437C478.798 58.5698 479.247 58.8994 479.693 59.2325C479.941 59.4175 480.187 59.6051 480.435 59.7906C481.474 60.5696 479.003 58.6624 480.093 59.5239C483.739 62.3885 487.201 65.479 490.46 68.7772C492.061 70.4072 493.607 72.0889 495.097 73.8223C495.862 74.7118 496.61 75.6143 497.344 76.5299C497.708 76.9848 498.949 78.6309 497.428 76.6145C497.8 77.1073 498.176 77.5968 498.542 78.0933C501.702 82.3708 504.509 86.8984 506.934 91.6314C508.727 95.1291 513.921 96.4333 517.195 94.322C518.878 93.2866 520.097 91.6421 520.598 89.7308C521.1 87.8195 520.844 85.7885 519.886 84.0606Z" fill="#3F3D56"/>
<path d="M432.497 206.456C431.723 206.491 430.956 206.288 430.301 205.873C429.647 205.459 429.135 204.853 428.836 204.138C428.537 203.423 428.465 202.633 428.63 201.876C428.795 201.119 429.188 200.43 429.757 199.904C429.853 199.526 429.921 199.253 430.016 198.875C429.982 198.792 429.948 198.71 429.914 198.627C426.434 190.33 404.229 213.461 403.269 221.259C402.846 224.706 403.024 228.201 403.796 231.587C396.603 215.897 392.868 198.844 392.844 181.584C392.843 177.253 393.083 172.925 393.565 168.621C393.963 165.092 394.515 161.589 395.222 158.11C399.077 139.237 407.354 121.547 419.373 106.494C426.247 106.877 432.271 105.83 432.853 92.5083C432.956 90.1386 434.714 88.0868 435.101 85.7524C434.445 85.8384 433.778 85.8922 433.122 85.9352C432.917 85.9459 432.702 85.9567 432.498 85.9675L432.421 85.9709C431.699 86.0033 430.984 85.8265 430.361 85.4618C429.738 85.0972 429.234 84.5602 428.909 83.9155C428.584 83.2708 428.452 82.546 428.53 81.8282C428.607 81.1104 428.89 80.4304 429.345 79.8698C429.628 79.5211 429.912 79.1726 430.196 78.8243C430.626 78.2863 431.067 77.7591 431.497 77.2213C431.547 77.1702 431.594 77.1163 431.637 77.0599C432.132 76.4466 432.627 75.8442 433.122 75.231C432.218 73.829 431.003 72.6546 429.572 71.7994C424.612 68.8947 417.77 70.9064 414.188 75.3924C410.595 79.8784 409.917 86.1719 411.165 91.7768C412.392 96.546 414.422 101.072 417.168 105.16C416.899 105.504 416.619 105.837 416.35 106.182C411.434 112.504 407.149 119.292 403.557 126.45C404.573 118.511 392.145 89.8418 387.339 83.7692C381.566 76.4751 369.728 79.6584 368.711 88.9048C368.701 88.9943 368.691 89.0838 368.682 89.1733C369.396 89.5761 370.094 90.0036 370.778 90.4557C371.637 91.0296 372.303 91.8495 372.688 92.8081C373.073 93.7667 373.159 94.8192 372.936 95.8278C372.712 96.8363 372.189 97.7539 371.435 98.4602C370.682 99.1665 369.732 99.6287 368.711 99.786L368.606 99.8022C359.051 113.446 389.684 148.957 397.352 140.984C393.743 151.211 391.479 161.865 390.617 172.676C390.129 179.055 390.158 185.462 390.703 191.836L390.671 191.61C388.967 177.728 359.74 157.088 351.205 158.807C346.288 159.797 341.445 159.572 342.192 164.532C342.204 164.611 342.216 164.69 342.228 164.769C343.553 165.309 344.843 165.93 346.09 166.63C346.804 167.033 347.503 167.461 348.186 167.913C349.045 168.487 349.711 169.307 350.096 170.265C350.481 171.224 350.567 172.276 350.344 173.285C350.12 174.293 349.598 175.211 348.844 175.917C348.09 176.624 347.14 177.086 346.119 177.243L346.015 177.259C345.939 177.27 345.875 177.281 345.8 177.292C341.45 192.258 373.707 216.412 393.317 208.726H393.328C395.272 217.171 398.087 225.391 401.73 233.254H431.745C431.852 232.921 431.949 232.576 432.046 232.243C429.268 232.418 426.479 232.251 423.741 231.748C425.968 229.016 428.195 226.262 430.421 223.529C430.471 223.478 430.518 223.424 430.561 223.368C431.691 221.969 432.831 220.581 433.961 219.183L433.961 219.181C434.022 214.894 433.53 210.618 432.498 206.456L432.497 206.456ZM398.126 138.843L398.142 138.821L398.126 138.864V138.843ZM391.478 198.775L391.22 198.194C391.23 197.775 391.23 197.355 391.22 196.925C391.22 196.806 391.198 196.688 391.198 196.57C391.295 197.312 391.381 198.054 391.489 198.797L391.478 198.775Z" fill="#3F3D56"/>
<path d="M95.248 144C101.323 144 106.248 139.075 106.248 133C106.248 126.925 101.323 122 95.248 122C89.1729 122 84.248 126.925 84.248 133C84.248 139.075 89.1729 144 95.248 144Z" fill="#3F3D56"/>
<path d="M227.248 264C233.323 264 238.248 259.075 238.248 253C238.248 246.925 233.323 242 227.248 242C221.173 242 216.248 246.925 216.248 253C216.248 259.075 221.173 264 227.248 264Z" fill="#3F3D56"/>
<path d="M728.248 264C734.323 264 739.248 259.075 739.248 253C739.248 246.925 734.323 242 728.248 242C722.173 242 717.248 246.925 717.248 253C717.248 259.075 722.173 264 728.248 264Z" fill="#3F3D56"/>
<path d="M755.248 124C761.323 124 766.248 119.075 766.248 113C766.248 106.925 761.323 102 755.248 102C749.173 102 744.248 106.925 744.248 113C744.248 119.075 749.173 124 755.248 124Z" fill="#3F3D56"/>
<path d="M723.248 22C729.323 22 734.248 17.0751 734.248 11C734.248 4.92487 729.323 0 723.248 0C717.173 0 712.248 4.92487 712.248 11C712.248 17.0751 717.173 22 723.248 22Z" fill="#3F3D56"/>
<path d="M264.25 113C264.243 115.81 263.156 118.51 261.215 120.541C259.273 122.571 256.625 123.778 253.818 123.911C251.011 124.044 248.261 123.093 246.136 121.254C244.012 119.415 242.675 116.83 242.403 114.034C242.131 111.237 242.945 108.443 244.676 106.23C246.406 104.016 248.922 102.553 251.702 102.143C254.481 101.732 257.312 102.406 259.609 104.025C261.906 105.644 263.492 108.084 264.04 110.84C264.181 111.551 264.251 112.275 264.25 113V113Z" fill="#3F3D56"/>
<path d="M484.248 54C490.323 54 495.248 49.0751 495.248 43C495.248 36.9249 490.323 32 484.248 32C478.173 32 473.248 36.9249 473.248 43C473.248 49.0751 478.173 54 484.248 54Z" fill="#3F3D56"/>
<path d="M375.25 43.0001C375.243 45.8099 374.156 48.5096 372.215 50.5405C370.273 52.5715 367.625 53.7783 364.818 53.9111C362.011 54.0439 359.261 53.0926 357.136 51.254C355.012 49.4155 353.675 46.8304 353.403 44.0338C353.131 41.2372 353.945 38.4431 355.676 36.2296C357.406 34.0162 359.922 32.553 362.702 32.1427C365.481 31.7324 368.313 32.4064 370.609 34.0253C372.906 35.6443 374.492 38.0841 375.04 40.84C375.181 41.5513 375.251 42.2749 375.25 43.0001V43.0001Z" fill="#3F3D56"/>
<path d="M233.25 11C233.243 13.8098 232.156 16.5096 230.215 18.5405C228.273 20.5715 225.625 21.7783 222.818 21.9111C220.011 22.0439 217.261 21.0926 215.136 19.254C213.012 17.4155 211.675 14.8304 211.403 12.0338C211.131 9.23719 211.945 6.44305 213.676 4.22965C215.406 2.01624 217.922 0.552982 220.702 0.142673C223.481 -0.267636 226.312 0.406414 228.609 2.02533C230.906 3.64425 232.492 6.08412 233.04 8.84003C233.181 9.55134 233.251 10.2749 233.25 11V11Z" fill="#3F3D56"/>
<path d="M599.248 148C605.323 148 610.248 143.075 610.248 137C610.248 130.925 605.323 126 599.248 126C593.173 126 588.248 130.925 588.248 137C588.248 143.075 593.173 148 599.248 148Z" fill="#3F3D56"/>
<path d="M426.248 48C435.085 48 442.248 40.8366 442.248 32C442.248 23.1634 435.085 16 426.248 16C417.411 16 410.248 23.1634 410.248 32C410.248 40.8366 417.411 48 426.248 48Z" fill="#3F3D56"/>
<path d="M858.941 264.841L1.19067 265.148C1.03431 265.148 0.879476 265.117 0.735016 265.057C0.590556 264.997 0.459305 264.91 0.34874 264.799C0.238175 264.689 0.150459 264.557 0.0906219 264.413C0.0307847 264.269 0 264.114 0 263.957C0 263.801 0.0307847 263.646 0.0906219 263.502C0.150459 263.357 0.238175 263.226 0.34874 263.115C0.459305 263.005 0.590556 262.917 0.735016 262.857C0.879476 262.797 1.03431 262.767 1.19067 262.767L858.941 262.459C859.256 262.46 859.558 262.586 859.78 262.809C860.003 263.032 860.128 263.335 860.128 263.65C860.128 263.965 860.003 264.267 859.78 264.491C859.558 264.714 859.256 264.84 858.941 264.841V264.841Z" fill="#CACACA"/>
</svg>
